<?xml version="1.0" standalone="no"?><!DOCTYPE svg PUBLIC "-//W3C//DTD SVG 1.1//EN" "http://www.w3.org/Graphics/SVG/1.1/DTD/svg11.dtd"><svg class="icon" width="200px" height="200.00px" viewBox="0 0 1024 1024" version="1.1" xmlns="http://www.w3.org/2000/svg"><path d="M514 114.3c-219.9 0-398.9 178.9-398.9 398.8 0.1 220 179 398.9 398.9 398.9 219.9 0 398.8-178.9 398.8-398.9 0-219.8-178.9-398.8-398.8-398.8z m-35.6 531.5c0 32.5-26.3 58.8-58.8 58.8s-58.8-26.3-58.8-58.8V381.4c0-32.5 26.3-58.8 58.8-58.8s58.8 26.3 58.8 58.8v264.4z m188.7 0c0 32.5-26.3 58.8-58.8 58.8s-58.8-26.3-58.8-58.8V381.4c0-32.5 26.3-58.8 58.8-58.8s58.8 26.3 58.8 58.8v264.4z" fill="#0C0C0C" /></svg>